<svg width="89" height="100" viewBox="0 0 89 100" fill="none" xmlns="http://www.w3.org/2000/svg">
<g clip-path="url(#clip0_6_2315)">
<path d="M65.9075 34.6084C63.8568 34.6191 62.0808 35.1111 60.5928 35.8457C60.0488 34.7591 59.4968 33.8031 59.4048 33.0924C59.2968 32.2631 59.1715 31.7671 59.3021 30.7791C59.4328 29.7911 60.0048 28.3911 59.9968 28.2857C59.9888 28.1804 59.8688 27.6777 58.6861 27.6684C57.5035 27.6604 56.4915 27.8964 56.3728 28.2084C56.2541 28.5204 56.0261 29.2231 55.8848 29.9564C55.6781 31.0284 53.5235 34.8537 52.3008 36.8537C51.9008 36.0724 51.5608 35.3844 51.4901 34.8404C51.3821 34.0111 51.2568 33.5151 51.3875 32.5271C51.5181 31.5391 52.0901 30.1391 52.0821 30.0337C52.0741 29.9284 51.9541 29.4257 50.7715 29.4164C49.5888 29.4084 48.5768 29.6444 48.4581 29.9564C48.3395 30.2684 48.2115 30.9977 47.9701 31.7044C47.7275 32.4097 44.8648 38.7897 44.1141 40.4444C43.7315 41.2871 43.3995 41.9644 43.1648 42.4257L43.1635 42.4231C43.1635 42.4231 43.1488 42.4537 43.1248 42.5057C42.9235 42.8991 42.8048 43.1164 42.8048 43.1164C42.8048 43.1164 42.8061 43.1191 42.8088 43.1244C42.6488 43.4137 42.4781 43.6817 42.3941 43.6817C42.3355 43.6817 42.2168 42.9124 42.4195 41.8564C42.8461 39.6431 43.8688 36.1924 43.8595 36.0724C43.8541 36.0111 44.0501 35.4097 43.1915 35.0951C42.3568 34.7897 42.0595 35.2991 41.9835 35.3004C41.9101 35.3017 41.8555 35.4804 41.8555 35.4804C41.8555 35.4804 42.7848 31.5991 40.0821 31.5991C38.3915 31.5991 36.0501 33.4484 34.8968 35.1244C34.1688 35.5217 32.6101 36.3724 30.9581 37.2804C30.3235 37.6297 29.6755 37.9857 29.0608 38.3244C29.0195 38.2777 28.9768 38.2324 28.9341 38.1857C25.6555 34.6884 19.5968 32.2151 19.8528 27.5124C19.9461 25.8031 20.5408 21.3017 31.4968 15.8431C40.4715 11.3711 47.6568 12.6017 48.8981 15.3284C50.6715 19.2257 45.0581 26.4671 35.7381 27.5124C32.1875 27.9111 30.3168 26.5337 29.8515 26.0217C29.3621 25.4817 29.2888 25.4577 29.1061 25.5591C28.8088 25.7244 28.9968 26.2004 29.1061 26.4844C29.3848 27.2084 30.5261 28.4924 32.4728 29.1324C34.1861 29.6951 38.3555 30.0031 43.3968 28.0524C49.0448 25.8684 53.4541 19.7911 52.1581 14.7124C50.8408 9.54706 42.2755 7.8484 34.1688 10.7284C29.3381 12.4431 24.1155 15.1337 20.3595 18.6457C15.8941 22.8217 15.1821 26.4577 15.4755 27.9764C16.5181 33.3737 23.9568 36.8884 26.9355 39.4924C26.7888 39.5737 26.6501 39.6497 26.5248 39.7191C25.0315 40.4577 19.3608 43.4257 17.9421 46.5604C16.3328 50.1164 18.1981 52.6684 19.4328 53.0124C23.2581 54.0764 27.1835 52.1617 29.2941 49.0151C31.4035 45.8697 31.1461 41.7724 30.1781 39.9031C30.1661 39.8804 30.1528 39.8577 30.1408 39.8337C30.5261 39.6057 30.9195 39.3737 31.3088 39.1444C32.0688 38.6977 32.8155 38.2817 33.4621 37.9297C33.0995 38.9217 32.8341 40.1124 32.6968 41.8311C32.5341 43.8497 33.3621 46.4591 34.4448 47.4857C34.9221 47.9377 35.4955 47.9484 35.8581 47.9484C37.1181 47.9484 37.6928 46.9004 38.3261 45.6604C39.1021 44.1404 39.7915 42.3697 39.7915 42.3697C39.7915 42.3697 38.9275 47.1511 41.2821 47.1511C42.1408 47.1511 43.0035 46.0377 43.3888 45.4711C43.3901 45.4777 43.3901 45.4804 43.3901 45.4804C43.3901 45.4804 43.4128 45.4431 43.4568 45.3697C43.5461 45.2337 43.5968 45.1471 43.5968 45.1471C43.5968 45.1471 43.5981 45.1377 43.6008 45.1217C43.9461 44.5231 44.7115 43.1577 45.8581 40.9057C47.3408 37.9964 48.7621 34.3511 48.7621 34.3511C48.7621 34.3511 48.8941 35.2417 49.3275 36.7164C49.5821 37.5831 50.1235 38.5417 50.5515 39.4617C50.2075 39.9391 49.9968 40.2124 49.9968 40.2124C49.9968 40.2124 49.9981 40.2177 50.0021 40.2271C49.7275 40.5924 49.4195 40.9857 49.0968 41.3697C47.9261 42.7631 46.5328 44.3551 46.3461 44.8137C46.1261 45.3551 46.1781 45.7524 46.6035 46.0737C46.9141 46.3071 47.4661 46.3444 48.0435 46.3057C49.0955 46.2351 49.8341 45.9737 50.1995 45.8151C50.7688 45.6137 51.4315 45.2977 52.0528 44.8404C53.2008 43.9964 53.8928 42.7897 53.8261 41.1897C53.7888 40.3084 53.5088 39.4351 53.1528 38.6111C53.2568 38.4617 53.3608 38.3097 53.4661 38.1577C55.2755 35.5124 56.6795 32.6057 56.6795 32.6057C56.6795 32.6057 56.8115 33.4964 57.2448 34.9711C57.4635 35.7164 57.8968 36.5311 58.2861 37.3284C56.5848 38.7111 55.5301 40.3177 55.1635 41.3711C54.4861 43.3204 55.0168 44.2031 56.0115 44.4044C56.4621 44.4951 57.0995 44.2884 57.5781 44.0857C58.1741 43.8884 58.8901 43.5591 59.5595 43.0671C60.7075 42.2231 61.8115 41.0417 61.7448 39.4431C61.7141 38.7151 61.5168 37.9924 61.2488 37.2991C62.6915 36.6977 64.5581 36.3644 66.9368 36.6417C72.0395 37.2377 73.0395 40.4231 72.8488 41.7564C72.6568 43.0897 71.5875 43.8231 71.2288 44.0444C70.8715 44.2657 70.7621 44.3431 70.7915 44.5071C70.8355 44.7457 71.0008 44.7377 71.3061 44.6857C71.7261 44.6151 73.9848 43.6017 74.0821 41.1404C74.2035 38.0124 71.2101 34.5804 65.9075 34.6084ZM26.5781 47.8671C24.8875 49.7111 22.5275 50.4071 21.5141 49.8204C20.4208 49.1871 20.8541 46.4724 22.9275 44.5151C24.1915 43.3231 25.8235 42.2244 26.9061 41.5484C27.1528 41.4004 27.5141 41.1831 27.9541 40.9191C28.0275 40.8777 28.0688 40.8551 28.0688 40.8551L28.0675 40.8524C28.1528 40.8017 28.2395 40.7497 28.3288 40.6951C29.0848 43.4804 28.3528 45.9324 26.5781 47.8671ZM38.8915 39.4977C38.3035 40.9324 37.0715 44.6044 36.3208 44.4071C35.6768 44.2377 35.2848 41.4471 36.1928 38.7004C36.6488 37.3177 37.6248 35.6657 38.1981 35.0244C39.1208 33.9924 40.1368 33.6551 40.3835 34.0737C40.6968 34.6071 39.2608 38.5977 38.8915 39.4977ZM49.0635 44.3511C48.8141 44.4817 48.5848 44.5631 48.4795 44.5004C48.4008 44.4537 48.5821 44.2817 48.5821 44.2817C48.5821 44.2817 49.8541 42.9124 50.3555 42.2897C50.6475 41.9271 50.9848 41.4964 51.3528 41.0164C51.3555 41.0644 51.3568 41.1124 51.3568 41.1591C51.3541 42.7991 49.7701 43.9057 49.0635 44.3511ZM56.8995 42.5644C56.7128 42.4324 56.7448 42.0044 57.3568 40.6697C57.5968 40.1457 58.1461 39.2644 59.0981 38.4217C59.2088 38.7684 59.2755 39.1004 59.2741 39.4097C59.2621 41.4737 57.7901 42.2444 56.8995 42.5644Z" fill="#F06292"/>
<path d="M9.49432 83.1818C9.41761 82.5341 9.10653 82.0312 8.56108 81.6733C8.01563 81.3153 7.34659 81.1364 6.55398 81.1364C5.97443 81.1364 5.46733 81.2301 5.03267 81.4176C4.60227 81.6051 4.26563 81.8629 4.02273 82.1911C3.78409 82.5192 3.66477 82.892 3.66477 83.3097C3.66477 83.6591 3.74787 83.9595 3.91406 84.2109C4.08452 84.4581 4.30185 84.6648 4.56605 84.831C4.83026 84.9929 5.10724 85.1271 5.39702 85.2337C5.68679 85.3359 5.95312 85.419 6.19602 85.483L7.52557 85.8409C7.86648 85.9304 8.24574 86.054 8.66335 86.2116C9.08523 86.3693 9.48793 86.5845 9.87145 86.8572C10.2592 87.1257 10.5788 87.4709 10.8303 87.8928C11.0817 88.3146 11.2074 88.8324 11.2074 89.446C11.2074 90.1534 11.022 90.7926 10.6513 91.3636C10.2848 91.9347 9.74787 92.3885 9.04048 92.7251C8.33736 93.0618 7.48295 93.2301 6.47727 93.2301C5.53977 93.2301 4.72798 93.0788 4.0419 92.7763C3.36009 92.4737 2.82315 92.0518 2.43111 91.5107C2.04332 90.9695 1.82386 90.3409 1.77273 89.625H3.40909C3.4517 90.1193 3.6179 90.5284 3.90767 90.8523C4.2017 91.1719 4.57244 91.4105 5.01989 91.5682C5.47159 91.7216 5.95739 91.7983 6.47727 91.7983C7.08239 91.7983 7.62571 91.7003 8.10724 91.5043C8.58878 91.304 8.97017 91.027 9.25142 90.6733C9.53267 90.3153 9.6733 89.8977 9.6733 89.4205C9.6733 88.9858 9.55185 88.6321 9.30895 88.3594C9.06605 88.0866 8.74645 87.8651 8.35014 87.6946C7.95384 87.5241 7.52557 87.375 7.06534 87.2472L5.45455 86.7869C4.43182 86.4929 3.62216 86.0732 3.02557 85.5277C2.42898 84.9822 2.13068 84.2685 2.13068 83.3864C2.13068 82.6534 2.32884 82.0142 2.72514 81.4688C3.12571 80.919 3.66264 80.4929 4.33594 80.1903C5.01349 79.8835 5.76989 79.7301 6.60511 79.7301C7.44886 79.7301 8.19886 79.8814 8.85511 80.1839C9.51136 80.4822 10.0313 80.8913 10.4148 81.4112C10.8026 81.9311 11.0071 82.5213 11.0284 83.1818H9.49432ZM16.4984 93.2301C15.8762 93.2301 15.3116 93.1129 14.8045 92.8786C14.2974 92.6399 13.8947 92.2969 13.5964 91.8494C13.2981 91.3977 13.149 90.8523 13.149 90.2131C13.149 89.6506 13.2598 89.1946 13.4814 88.8452C13.7029 88.4915 13.9991 88.2145 14.3699 88.0142C14.7406 87.8139 15.1497 87.6648 15.5971 87.5668C16.0488 87.4645 16.5027 87.3835 16.9586 87.3239C17.5552 87.2472 18.0389 87.1896 18.4096 87.1513C18.7846 87.1087 19.0574 87.0384 19.2278 86.9403C19.4025 86.8423 19.4899 86.6719 19.4899 86.429V86.3778C19.4899 85.7472 19.3173 85.2571 18.9721 84.9077C18.6312 84.5582 18.1135 84.3835 17.4189 84.3835C16.6987 84.3835 16.1341 84.5412 15.725 84.8565C15.3159 85.1719 15.0282 85.5085 14.862 85.8665L13.4302 85.3551C13.6859 84.7585 14.0268 84.294 14.4529 83.9616C14.8833 83.625 15.3521 83.3906 15.8592 83.2585C16.3706 83.1222 16.8734 83.054 17.3677 83.054C17.6831 83.054 18.0453 83.0923 18.4544 83.169C18.8677 83.2415 19.2662 83.3928 19.6497 83.6229C20.0375 83.853 20.3592 84.2003 20.6149 84.6648C20.8706 85.1293 20.9984 85.7514 20.9984 86.5312V93H19.4899V91.6705H19.4132C19.3109 91.8835 19.1404 92.1115 18.9018 92.3544C18.6632 92.5973 18.3457 92.804 17.9494 92.9744C17.5531 93.1449 17.0694 93.2301 16.4984 93.2301ZM16.7285 91.875C17.3251 91.875 17.8279 91.7578 18.237 91.5234C18.6504 91.2891 18.9615 90.9865 19.1703 90.6158C19.3833 90.245 19.4899 89.8551 19.4899 89.446V88.0653C19.426 88.142 19.2853 88.2124 19.068 88.2763C18.8549 88.3359 18.6078 88.3892 18.3265 88.4361C18.0495 88.4787 17.7789 88.517 17.5147 88.5511C17.2548 88.581 17.0439 88.6065 16.8819 88.6278C16.4899 88.679 16.1234 88.7621 15.7825 88.8771C15.4458 88.9879 15.1731 89.1562 14.9643 89.3821C14.7598 89.6037 14.6575 89.9062 14.6575 90.2898C14.6575 90.8139 14.8514 91.2102 15.2392 91.4787C15.6312 91.7429 16.1277 91.875 16.7285 91.875ZM30.7063 85.3807L29.3512 85.7642C29.266 85.5384 29.1403 85.3189 28.9741 85.1058C28.8121 84.8885 28.5906 84.7095 28.3093 84.5689C28.0281 84.4283 27.668 84.358 27.229 84.358C26.6282 84.358 26.1275 84.4964 25.7269 84.7734C25.3306 85.0462 25.1325 85.3935 25.1325 85.8153C25.1325 86.1903 25.2688 86.4865 25.5415 86.7038C25.8143 86.9212 26.2404 87.1023 26.82 87.2472L28.2773 87.6051C29.1552 87.8182 29.8093 88.1442 30.2397 88.5831C30.6701 89.0178 30.8853 89.5781 30.8853 90.2642C30.8853 90.8267 30.7234 91.3295 30.3995 91.7727C30.0799 92.2159 29.6325 92.5653 29.0572 92.821C28.4819 93.0767 27.8129 93.2045 27.0501 93.2045C26.0487 93.2045 25.2198 92.9872 24.5636 92.5526C23.9073 92.1179 23.4918 91.483 23.3171 90.6477L24.7489 90.2898C24.8853 90.8182 25.1431 91.2145 25.5224 91.4787C25.9059 91.7429 26.4066 91.875 27.0245 91.875C27.7276 91.875 28.2859 91.7259 28.6992 91.4276C29.1168 91.125 29.3256 90.7628 29.3256 90.3409C29.3256 90 29.2063 89.7145 28.9677 89.4844C28.729 89.25 28.3626 89.0753 27.8683 88.9602L26.2319 88.5767C25.3327 88.3636 24.6722 88.0334 24.2504 87.5859C23.8327 87.1342 23.6239 86.5696 23.6239 85.892C23.6239 85.3381 23.7795 84.848 24.0906 84.4219C24.4059 83.9957 24.8342 83.6612 25.3754 83.4183C25.9208 83.1754 26.5387 83.054 27.229 83.054C28.2006 83.054 28.9634 83.267 29.5174 83.6932C30.0756 84.1193 30.4719 84.6818 30.7063 85.3807ZM40.1106 85.3807L38.7555 85.7642C38.6703 85.5384 38.5446 85.3189 38.3784 85.1058C38.2164 84.8885 37.9949 84.7095 37.7136 84.5689C37.4324 84.4283 37.0723 84.358 36.6333 84.358C36.0325 84.358 35.5318 84.4964 35.1312 84.7734C34.7349 85.0462 34.5368 85.3935 34.5368 85.8153C34.5368 86.1903 34.6731 86.4865 34.9458 86.7038C35.2186 86.9212 35.6447 87.1023 36.2243 87.2472L37.6816 87.6051C38.5595 87.8182 39.2136 88.1442 39.644 88.5831C40.0744 89.0178 40.2896 89.5781 40.2896 90.2642C40.2896 90.8267 40.1277 91.3295 39.8038 91.7727C39.4842 92.2159 39.0368 92.5653 38.4615 92.821C37.8862 93.0767 37.2172 93.2045 36.4544 93.2045C35.4529 93.2045 34.6241 92.9872 33.9679 92.5526C33.3116 92.1179 32.8961 91.483 32.7214 90.6477L34.1532 90.2898C34.2896 90.8182 34.5474 91.2145 34.9267 91.4787C35.3102 91.7429 35.8109 91.875 36.4288 91.875C37.1319 91.875 37.6902 91.7259 38.1035 91.4276C38.5211 91.125 38.7299 90.7628 38.7299 90.3409C38.7299 90 38.6106 89.7145 38.372 89.4844C38.1333 89.25 37.7669 89.0753 37.2726 88.9602L35.6362 88.5767C34.737 88.3636 34.0765 88.0334 33.6547 87.5859C33.237 87.1342 33.0282 86.5696 33.0282 85.892C33.0282 85.3381 33.1838 84.848 33.4949 84.4219C33.8102 83.9957 34.2385 83.6612 34.7797 83.4183C35.3251 83.1754 35.943 83.054 36.6333 83.054C37.6049 83.054 38.3677 83.267 38.9217 83.6932C39.4799 84.1193 39.8762 84.6818 40.1106 85.3807ZM47.1882 79.2955L42.9695 94.9688H41.5888L45.8075 79.2955H47.1882ZM56.34 83.1818C56.2633 82.5341 55.9522 82.0312 55.4068 81.6733C54.8613 81.3153 54.1923 81.1364 53.3997 81.1364C52.8201 81.1364 52.313 81.2301 51.8784 81.4176C51.448 81.6051 51.1113 81.8629 50.8684 82.1911C50.6298 82.5192 50.5105 82.892 50.5105 83.3097C50.5105 83.6591 50.5936 83.9595 50.7598 84.2109C50.9302 84.4581 51.1475 84.6648 51.4118 84.831C51.676 84.9929 51.9529 85.1271 52.2427 85.2337C52.5325 85.3359 52.7988 85.419 53.0417 85.483L54.3713 85.8409C54.7122 85.9304 55.0914 86.054 55.5091 86.2116C55.9309 86.3693 56.3336 86.5845 56.7172 86.8572C57.1049 87.1257 57.4245 87.4709 57.676 87.8928C57.9274 88.3146 58.0531 88.8324 58.0531 89.446C58.0531 90.1534 57.8677 90.7926 57.497 91.3636C57.1305 91.9347 56.5936 92.3885 55.8862 92.7251C55.1831 93.0618 54.3287 93.2301 53.323 93.2301C52.3855 93.2301 51.5737 93.0788 50.8876 92.7763C50.2058 92.4737 49.6689 92.0518 49.2768 91.5107C48.889 90.9695 48.6696 90.3409 48.6184 89.625H50.2548C50.2974 90.1193 50.4636 90.5284 50.7534 90.8523C51.0474 91.1719 51.4181 91.4105 51.8656 91.5682C52.3173 91.7216 52.8031 91.7983 53.323 91.7983C53.9281 91.7983 54.4714 91.7003 54.9529 91.5043C55.4345 91.304 55.8159 91.027 56.0971 90.6733C56.3784 90.3153 56.519 89.8977 56.519 89.4205C56.519 88.9858 56.3976 88.6321 56.1547 88.3594C55.9118 88.0866 55.5922 87.8651 55.1958 87.6946C54.7995 87.5241 54.3713 87.375 53.911 87.2472L52.3002 86.7869C51.2775 86.4929 50.4679 86.0732 49.8713 85.5277C49.2747 84.9822 48.9764 84.2685 48.9764 83.3864C48.9764 82.6534 49.1745 82.0142 49.5708 81.4688C49.9714 80.919 50.5083 80.4929 51.1816 80.1903C51.8592 79.8835 52.6156 79.7301 53.4508 79.7301C54.2946 79.7301 55.0446 79.8814 55.7008 80.1839C56.3571 80.4822 56.877 80.8913 57.2605 81.4112C57.6483 81.9311 57.8528 82.5213 57.8741 83.1818H56.34ZM64.4435 93.2045C63.5231 93.2045 62.7305 92.9872 62.0657 92.5526C61.4009 92.1179 60.8896 91.5192 60.5316 90.7564C60.1737 89.9936 59.9947 89.1222 59.9947 88.142C59.9947 87.1449 60.1779 86.2649 60.5444 85.5021C60.9151 84.7351 61.4308 84.1364 62.0913 83.706C62.756 83.2713 63.5316 83.054 64.418 83.054C65.1083 83.054 65.7305 83.1818 66.2844 83.4375C66.8384 83.6932 67.2923 84.0511 67.646 84.5114C67.9996 84.9716 68.2191 85.5085 68.3043 86.1222H66.7958C66.6808 85.6747 66.4251 85.2784 66.0288 84.9332C65.6367 84.5838 65.1083 84.4091 64.4435 84.4091C63.8555 84.4091 63.3398 84.5625 62.8967 84.8693C62.4577 85.1719 62.1147 85.6001 61.8675 86.1541C61.6246 86.7038 61.5032 87.3494 61.5032 88.0909C61.5032 88.8494 61.6225 89.5099 61.8612 90.0724C62.104 90.6349 62.445 91.0717 62.8839 91.3828C63.3271 91.6939 63.8469 91.8494 64.4435 91.8494C64.8356 91.8494 65.1914 91.7812 65.511 91.6449C65.8306 91.5085 66.1012 91.3125 66.3228 91.0568C66.5444 90.8011 66.7021 90.4943 66.7958 90.1364H68.3043C68.2191 90.7159 68.0082 91.2379 67.6715 91.7024C67.3391 92.1626 66.8981 92.5291 66.3484 92.8018C65.8029 93.0703 65.168 93.2045 64.4435 93.2045ZM77.4641 85.3807L76.109 85.7642C76.0238 85.5384 75.8981 85.3189 75.7319 85.1058C75.57 84.8885 75.3484 84.7095 75.0671 84.5689C74.7859 84.4283 74.4258 84.358 73.9869 84.358C73.386 84.358 72.8853 84.4964 72.4847 84.7734C72.0884 85.0462 71.8903 85.3935 71.8903 85.8153C71.8903 86.1903 72.0266 86.4865 72.2994 86.7038C72.5721 86.9212 72.9982 87.1023 73.5778 87.2472L75.0352 87.6051C75.913 87.8182 76.5671 88.1442 76.9975 88.5831C77.4279 89.0178 77.6431 89.5781 77.6431 90.2642C77.6431 90.8267 77.4812 91.3295 77.1573 91.7727C76.8377 92.2159 76.3903 92.5653 75.815 92.821C75.2397 93.0767 74.5707 93.2045 73.8079 93.2045C72.8065 93.2045 71.9776 92.9872 71.3214 92.5526C70.6651 92.1179 70.2496 91.483 70.0749 90.6477L71.5067 90.2898C71.6431 90.8182 71.9009 91.2145 72.2802 91.4787C72.6637 91.7429 73.1644 91.875 73.7823 91.875C74.4854 91.875 75.0437 91.7259 75.457 91.4276C75.8746 91.125 76.0835 90.7628 76.0835 90.3409C76.0835 90 75.9641 89.7145 75.7255 89.4844C75.4869 89.25 75.1204 89.0753 74.6261 88.9602L72.9897 88.5767C72.0906 88.3636 71.43 88.0334 71.0082 87.5859C70.5906 87.1342 70.3817 86.5696 70.3817 85.892C70.3817 85.3381 70.5373 84.848 70.8484 84.4219C71.1637 83.9957 71.592 83.6612 72.1332 83.4183C72.6786 83.1754 73.2965 83.054 73.9869 83.054C74.9585 83.054 75.7212 83.267 76.2752 83.6932C76.8335 84.1193 77.2298 84.6818 77.4641 85.3807ZM86.8684 85.3807L85.5133 85.7642C85.4281 85.5384 85.3024 85.3189 85.1362 85.1058C84.9743 84.8885 84.7527 84.7095 84.4714 84.5689C84.1902 84.4283 83.8301 84.358 83.3912 84.358C82.7903 84.358 82.2896 84.4964 81.889 84.7734C81.4927 85.0462 81.2946 85.3935 81.2946 85.8153C81.2946 86.1903 81.4309 86.4865 81.7037 86.7038C81.9764 86.9212 82.4025 87.1023 82.9821 87.2472L84.4395 87.6051C85.3173 87.8182 85.9714 88.1442 86.4018 88.5831C86.8322 89.0178 87.0474 89.5781 87.0474 90.2642C87.0474 90.8267 86.8855 91.3295 86.5616 91.7727C86.242 92.2159 85.7946 92.5653 85.2193 92.821C84.644 93.0767 83.975 93.2045 83.2122 93.2045C82.2108 93.2045 81.3819 92.9872 80.7257 92.5526C80.0694 92.1179 79.6539 91.483 79.4792 90.6477L80.911 90.2898C81.0474 90.8182 81.3052 91.2145 81.6845 91.4787C82.068 91.7429 82.5687 91.875 83.1866 91.875C83.8897 91.875 84.448 91.7259 84.8613 91.4276C85.2789 91.125 85.4877 90.7628 85.4877 90.3409C85.4877 90 85.3684 89.7145 85.1298 89.4844C84.8912 89.25 84.5247 89.0753 84.0304 88.9602L82.394 88.5767C81.4949 88.3636 80.8343 88.0334 80.4125 87.5859C79.9949 87.1342 79.786 86.5696 79.786 85.892C79.786 85.3381 79.9416 84.848 80.2527 84.4219C80.568 83.9957 80.9963 83.6612 81.5375 83.4183C82.0829 83.1754 82.7008 83.054 83.3912 83.054C84.3627 83.054 85.1255 83.267 85.6795 83.6932C86.2377 84.1193 86.6341 84.6818 86.8684 85.3807Z" fill="#4B5563"/>
</g>
<defs>
<clipPath id="clip0_6_2315">
<rect width="88" height="100" fill="white" transform="translate(0.75)"/>
</clipPath>
</defs>
</svg>
