<svg width="53" height="100" viewBox="0 0 53 100" fill="none" xmlns="http://www.w3.org/2000/svg">
<g clip-path="url(#clip0_6_2327)">
<g clip-path="url(#clip1_6_2327)">
<path d="M26.5 31.9997C26.5 29.1707 27.6238 26.4576 29.6242 24.4572C31.6246 22.4568 34.3377 21.333 37.1667 21.333C39.9956 21.333 42.7087 22.4568 44.7091 24.4572C46.7095 26.4576 47.8333 29.1707 47.8333 31.9997C47.8333 34.8287 46.7095 37.5418 44.7091 39.5421C42.7087 41.5425 39.9956 42.6663 37.1667 42.6663C34.3377 42.6663 31.6246 41.5425 29.6242 39.5421C27.6238 37.5418 26.5 34.8287 26.5 31.9997Z" fill="#1ABCFE"/>
<path d="M5.16797 53.3337C5.16797 50.5047 6.29177 47.7916 8.29216 45.7912C10.2926 43.7908 13.0057 42.667 15.8346 42.667H26.5013V53.3337C26.5013 56.1626 25.3775 58.8757 23.3771 60.8761C21.3767 62.8765 18.6636 64.0003 15.8346 64.0003C13.0057 64.0003 10.2926 62.8765 8.29216 60.8761C6.29177 58.8757 5.16797 56.1626 5.16797 53.3337Z" fill="#0ACF83"/>
<path d="M26.5 0V21.3333H37.1667C39.9956 21.3333 42.7087 20.2095 44.7091 18.2091C46.7095 16.2087 47.8333 13.4956 47.8333 10.6667C47.8333 7.83769 46.7095 5.12458 44.7091 3.12419C42.7087 1.12381 39.9956 0 37.1667 0L26.5 0Z" fill="#FF7262"/>
<path d="M5.16797 10.6667C5.16797 13.4956 6.29177 16.2087 8.29216 18.2091C10.2926 20.2095 13.0057 21.3333 15.8346 21.3333H26.5013V0H15.8346C13.0057 0 10.2926 1.12381 8.29216 3.12419C6.29177 5.12458 5.16797 7.83769 5.16797 10.6667Z" fill="#F24E1E"/>
<path d="M5.16797 31.9997C5.16797 34.8287 6.29177 37.5418 8.29216 39.5421C10.2926 41.5425 13.0057 42.6663 15.8346 42.6663H26.5013V21.333H15.8346C13.0057 21.333 10.2926 22.4568 8.29216 24.4572C6.29177 26.4576 5.16797 29.1707 5.16797 31.9997Z" fill="#A259FF"/>
</g>
<path d="M2.08523 93V79.9091H9.93466V81.3153H3.67045V85.7386H9.34659V87.1449H3.67045V93H2.08523ZM12.4451 93V83.1818H13.9537V93H12.4451ZM13.2122 81.5455C12.9181 81.5455 12.6646 81.4453 12.4515 81.245C12.2427 81.0447 12.1383 80.804 12.1383 80.5227C12.1383 80.2415 12.2427 80.0007 12.4515 79.8004C12.6646 79.6001 12.9181 79.5 13.2122 79.5C13.5062 79.5 13.7576 79.6001 13.9664 79.8004C14.1795 80.0007 14.286 80.2415 14.286 80.5227C14.286 80.804 14.1795 81.0447 13.9664 81.245C13.7576 81.4453 13.5062 81.5455 13.2122 81.5455ZM20.6797 96.8864C19.951 96.8864 19.3246 96.7926 18.8004 96.6051C18.2763 96.4219 17.8395 96.179 17.4901 95.8764C17.1449 95.5781 16.87 95.2585 16.6655 94.9176L17.8672 94.0739C18.0036 94.2528 18.1761 94.4574 18.3849 94.6875C18.5938 94.9219 18.8793 95.1243 19.2415 95.2947C19.608 95.4695 20.0874 95.5568 20.6797 95.5568C21.4723 95.5568 22.1264 95.3651 22.642 94.9815C23.1577 94.598 23.4155 93.9972 23.4155 93.179V91.1847H23.2876C23.1768 91.3636 23.0192 91.5852 22.8146 91.8494C22.6143 92.1094 22.3246 92.3416 21.9453 92.5462C21.5703 92.7464 21.0632 92.8466 20.424 92.8466C19.6314 92.8466 18.9197 92.6591 18.2891 92.2841C17.6626 91.9091 17.1662 91.3636 16.7997 90.6477C16.4375 89.9318 16.2564 89.0625 16.2564 88.0398C16.2564 87.0341 16.4332 86.1584 16.7869 85.4126C17.1406 84.6626 17.6328 84.0831 18.2635 83.674C18.8942 83.2607 19.6229 83.054 20.4496 83.054C21.0888 83.054 21.5959 83.1605 21.9709 83.3736C22.3501 83.5824 22.6399 83.821 22.8402 84.0895C23.0447 84.3537 23.2024 84.571 23.3132 84.7415H23.4666V83.1818H24.924V93.2812C24.924 94.125 24.7322 94.8111 24.3487 95.3395C23.9695 95.8722 23.4581 96.2621 22.8146 96.5092C22.1754 96.7607 21.4638 96.8864 20.6797 96.8864ZM20.6286 91.4915C21.2337 91.4915 21.745 91.353 22.1626 91.076C22.5803 90.799 22.8977 90.4006 23.1151 89.8807C23.3324 89.3608 23.4411 88.7386 23.4411 88.0142C23.4411 87.3068 23.3345 86.6825 23.1214 86.1413C22.9084 85.6001 22.593 85.1761 22.1754 84.8693C21.7578 84.5625 21.2422 84.4091 20.6286 84.4091C19.9893 84.4091 19.4567 84.571 19.0305 84.8949C18.6087 85.2187 18.2912 85.6534 18.0781 86.1989C17.8693 86.7443 17.7649 87.3494 17.7649 88.0142C17.7649 88.696 17.8714 89.299 18.0845 89.8232C18.3018 90.343 18.6214 90.7521 19.0433 91.0504C19.4695 91.3445 19.9979 91.4915 20.6286 91.4915ZM27.6854 93V83.1818H29.1428V84.7159H29.2706C29.4751 84.1918 29.8054 83.7848 30.2614 83.495C30.7173 83.201 31.2649 83.054 31.9041 83.054C32.5518 83.054 33.0909 83.201 33.5213 83.495C33.956 83.7848 34.2947 84.1918 34.5376 84.7159H34.6399C34.8913 84.2088 35.2685 83.8061 35.7713 83.5078C36.2741 83.2053 36.8771 83.054 37.5803 83.054C38.4581 83.054 39.1761 83.3288 39.7344 83.8786C40.2926 84.424 40.5717 85.2741 40.5717 86.429V93H39.0632V86.429C39.0632 85.7045 38.8651 85.1868 38.4688 84.8757C38.0724 84.5646 37.6058 84.4091 37.0689 84.4091C36.3786 84.4091 35.8438 84.6179 35.4645 85.0355C35.0852 85.4489 34.8956 85.973 34.8956 86.608V93H33.3615V86.2756C33.3615 85.7173 33.1804 85.2678 32.8182 84.9268C32.456 84.5817 31.9893 84.4091 31.4183 84.4091C31.0263 84.4091 30.6598 84.5135 30.3189 84.7223C29.9822 84.9311 29.7095 85.2209 29.5007 85.5916C29.2962 85.9581 29.1939 86.3821 29.1939 86.8636V93H27.6854ZM46.2191 93.2301C45.5969 93.2301 45.0323 93.1129 44.5252 92.8786C44.0181 92.6399 43.6154 92.2969 43.3171 91.8494C43.0188 91.3977 42.8697 90.8523 42.8697 90.2131C42.8697 89.6506 42.9805 89.1946 43.2021 88.8452C43.4237 88.4915 43.7198 88.2145 44.0906 88.0142C44.4613 87.8139 44.8704 87.6648 45.3178 87.5668C45.7695 87.4645 46.2234 87.3835 46.6793 87.3239C47.2759 87.2472 47.7596 87.1896 48.1303 87.1513C48.5053 87.1087 48.7781 87.0384 48.9485 86.9403C49.1232 86.8423 49.2106 86.6719 49.2106 86.429V86.3778C49.2106 85.7472 49.038 85.2571 48.6928 84.9077C48.3519 84.5582 47.8342 84.3835 47.1396 84.3835C46.4194 84.3835 45.8548 84.5412 45.4457 84.8565C45.0366 85.1719 44.7489 85.5085 44.5827 85.8665L43.1509 85.3551C43.4066 84.7585 43.7475 84.294 44.1737 83.9616C44.604 83.625 45.0728 83.3906 45.5799 83.2585C46.0913 83.1222 46.5941 83.054 47.0884 83.054C47.4038 83.054 47.766 83.0923 48.1751 83.169C48.5884 83.2415 48.9869 83.3928 49.3704 83.6229C49.7582 83.853 50.0799 84.2003 50.3356 84.6648C50.5913 85.1293 50.7191 85.7514 50.7191 86.5312V93H49.2106V91.6705H49.1339C49.0316 91.8835 48.8612 92.1115 48.6225 92.3544C48.3839 92.5973 48.0664 92.804 47.6701 92.9744C47.2738 93.1449 46.7901 93.2301 46.2191 93.2301ZM46.4492 91.875C47.0458 91.875 47.5487 91.7578 47.9577 91.5234C48.3711 91.2891 48.6822 90.9865 48.891 90.6158C49.104 90.245 49.2106 89.8551 49.2106 89.446V88.0653C49.1467 88.142 49.006 88.2124 48.7887 88.2763C48.5756 88.3359 48.3285 88.3892 48.0472 88.4361C47.7702 88.4787 47.4996 88.517 47.2354 88.5511C46.9755 88.581 46.7646 88.6065 46.6026 88.6278C46.2106 88.679 45.8441 88.7621 45.5032 88.8771C45.1665 88.9879 44.8938 89.1562 44.685 89.3821C44.4805 89.6037 44.3782 89.9062 44.3782 90.2898C44.3782 90.8139 44.5721 91.2102 44.9599 91.4787C45.3519 91.7429 45.8484 91.875 46.4492 91.875Z" fill="#4B5563"/>
</g>
<defs>
<clipPath id="clip0_6_2327">
<rect width="52" height="100" fill="white" transform="translate(0.5)"/>
</clipPath>
<clipPath id="clip1_6_2327">
<rect width="42.6667" height="64" fill="white" transform="translate(5.16797)"/>
</clipPath>
</defs>
</svg>
