<svg width="65" height="100" viewBox="0 0 65 100" fill="none" xmlns="http://www.w3.org/2000/svg">
<g clip-path="url(#clip0_6_2349)">
<path d="M56.518 29.467L34.7846 7.73366C34.118 7.06699 33.1846 6.66699 32.2513 6.66699C31.318 6.66699 30.3846 7.06699 29.718 7.73366L25.0513 12.4003L30.518 17.867C31.0513 17.6003 31.5846 17.467 32.2513 17.467C34.518 17.467 36.2513 19.2003 36.2513 21.467C36.2513 22.1337 36.118 22.667 35.8513 23.2003L41.1846 28.5337C41.718 28.267 42.2513 28.1337 42.918 28.1337C45.1846 28.1337 46.918 29.867 46.918 32.1337C46.918 34.4003 45.1846 36.1337 42.918 36.1337C40.6513 36.1337 38.918 34.4003 38.918 32.1337C38.918 31.467 39.0513 30.9337 39.318 30.4003L33.9846 25.067C33.8513 25.067 33.718 25.2003 33.5846 25.2003V39.067C35.1846 39.6003 36.2513 41.067 36.2513 42.8003C36.2513 45.067 34.518 46.8003 32.2513 46.8003C29.9846 46.8003 28.2513 45.067 28.2513 42.8003C28.2513 41.067 29.318 39.6003 30.918 39.067V25.067C29.318 24.5337 28.2513 23.067 28.2513 21.3337C28.2513 20.667 28.3846 20.1337 28.6513 19.6003L23.1846 14.1337L7.98464 29.467C7.31797 30.1337 6.91797 31.067 6.91797 32.0003C6.91797 32.9337 7.31797 33.867 7.98464 34.5337L29.718 56.267C30.3846 56.9337 31.318 57.3337 32.2513 57.3337C33.1846 57.3337 34.118 56.9337 34.7846 56.267L56.518 34.5337C57.1846 33.867 57.5846 32.9337 57.5846 32.0003C57.5846 31.067 57.1846 30.1337 56.518 29.467Z" fill="#F4511E"/>
<path d="M30.2841 84C30.1435 83.5696 29.9581 83.1839 29.728 82.843C29.5021 82.4979 29.2315 82.2038 28.9162 81.9609C28.6051 81.718 28.2514 81.5327 27.8551 81.4048C27.4588 81.277 27.0241 81.2131 26.5511 81.2131C25.7756 81.2131 25.0703 81.4134 24.4354 81.8139C23.8004 82.2145 23.2955 82.8047 22.9205 83.5845C22.5455 84.3643 22.358 85.321 22.358 86.4545C22.358 87.5881 22.5476 88.5447 22.9268 89.3246C23.3061 90.1044 23.8196 90.6946 24.4673 91.0952C25.1151 91.4957 25.8438 91.696 26.6534 91.696C27.4034 91.696 28.0639 91.5362 28.6349 91.2166C29.2102 90.8928 29.6577 90.4368 29.9773 89.8487C30.3011 89.2564 30.4631 88.5597 30.4631 87.7585L30.9489 87.8608H27.0114V86.4545H31.9972V87.8608C31.9972 88.9389 31.767 89.8764 31.3068 90.6733C30.8509 91.4702 30.2202 92.0881 29.4148 92.527C28.6136 92.9616 27.6932 93.179 26.6534 93.179C25.4943 93.179 24.4759 92.9062 23.598 92.3608C22.7244 91.8153 22.0426 91.0398 21.5526 90.0341C21.0668 89.0284 20.8239 87.8352 20.8239 86.4545C20.8239 85.419 20.9624 84.4879 21.2393 83.6612C21.5206 82.8303 21.9169 82.1229 22.4283 81.5391C22.9396 80.9553 23.5447 80.5078 24.2436 80.1967C24.9425 79.8857 25.7116 79.7301 26.5511 79.7301C27.2415 79.7301 27.8849 79.8345 28.4815 80.0433C29.0824 80.2479 29.6172 80.5398 30.0859 80.919C30.5589 81.294 30.9531 81.7436 31.2685 82.2678C31.5838 82.7876 31.8011 83.3651 31.9205 84H30.2841ZM35.1229 93V83.1818H36.6314V93H35.1229ZM35.8899 81.5455C35.5959 81.5455 35.3423 81.4453 35.1293 81.245C34.9205 81.0447 34.8161 80.804 34.8161 80.5227C34.8161 80.2415 34.9205 80.0007 35.1293 79.8004C35.3423 79.6001 35.5959 79.5 35.8899 79.5C36.1839 79.5 36.4354 79.6001 36.6442 79.8004C36.8572 80.0007 36.9638 80.2415 36.9638 80.5227C36.9638 80.804 36.8572 81.0447 36.6442 81.245C36.4354 81.4453 36.1839 81.5455 35.8899 81.5455ZM43.6642 83.1818V84.4602H38.5762V83.1818H43.6642ZM40.0591 80.8295H41.5676V90.1875C41.5676 90.6136 41.6294 90.9332 41.753 91.1463C41.8809 91.3551 42.0428 91.4957 42.2388 91.5682C42.4391 91.6364 42.65 91.6705 42.8716 91.6705C43.0378 91.6705 43.1742 91.6619 43.2807 91.6449C43.3873 91.6236 43.4725 91.6065 43.5364 91.5938L43.8432 92.9489C43.7409 92.9872 43.5982 93.0256 43.415 93.0639C43.2317 93.1065 42.9995 93.1278 42.7182 93.1278C42.2921 93.1278 41.8745 93.0362 41.4654 92.853C41.0605 92.6697 40.7239 92.3906 40.4554 92.0156C40.1912 91.6406 40.0591 91.1676 40.0591 90.5966V80.8295Z" fill="#4B5563"/>
</g>
<defs>
<clipPath id="clip0_6_2349">
<rect width="64" height="100" fill="white" transform="translate(0.25)"/>
</clipPath>
</defs>
</svg>
