<svg width="90" height="90" viewBox="0 0 90 90" fill="none" xmlns="http://www.w3.org/2000/svg">
<g clip-path="url(#clip0_100_857)">
<path d="M44.6145 0.0253906C21.8242 0.0253906 23.2472 9.94833 23.2472 9.94833L23.2725 20.2288H45.0209V23.3153H14.6343C14.6343 23.3153 0.0507812 21.6547 0.0507812 44.7423C0.0507812 67.8307 12.7797 67.0119 12.7797 67.0119H20.3762V56.298C20.3762 56.298 19.9667 43.518 32.9019 43.518H54.4725C54.4725 43.518 66.5914 43.7146 66.5914 31.7583V11.9894C66.5914 11.9894 68.432 0.0253906 44.6145 0.0253906ZM32.6224 6.9388C33.1364 6.93834 33.6453 7.03963 34.1202 7.23688C34.5951 7.43412 35.0266 7.72346 35.39 8.08832C35.7535 8.45318 36.0416 8.88641 36.2381 9.36322C36.4345 9.84002 36.5354 10.351 36.535 10.867C36.5354 11.383 36.4345 11.8941 36.2381 12.3709C36.0416 12.8477 35.7535 13.2809 35.39 13.6458C35.0266 14.0106 34.5951 14.3 34.1202 14.4972C33.6453 14.6944 33.1364 14.7957 32.6224 14.7953C32.1085 14.7957 31.5995 14.6944 31.1246 14.4972C30.6497 14.3 30.2182 14.0106 29.8548 13.6458C29.4914 13.2809 29.2033 12.8477 29.0068 12.3709C28.8103 11.8941 28.7095 11.383 28.7099 10.867C28.7095 10.351 28.8103 9.84002 29.0068 9.36322C29.2033 8.88641 29.4914 8.45318 29.8548 8.08832C30.2182 7.72346 30.6497 7.43412 31.1246 7.23688C31.5995 7.03963 32.1085 6.93834 32.6224 6.9388Z" fill="url(#paint0_linear_100_857)"/>
<path d="M45.2622 89.6912C68.0525 89.6912 66.6295 79.7683 66.6295 79.7683L66.6042 69.4882H44.8555V66.4017H75.242C75.242 66.4017 89.8256 68.0623 89.8256 44.9739C89.8256 21.8859 77.0967 22.7048 77.0967 22.7048H69.5001V33.4183C69.5001 33.4183 69.9097 46.1983 56.9744 46.1983H35.4039C35.4039 46.1983 23.2849 46.0017 23.2849 57.9583V77.7276C23.2849 77.7276 21.4447 89.6912 45.2618 89.6912H45.2622ZM57.2543 82.7785C56.7403 82.779 56.2314 82.6777 55.7565 82.4805C55.2816 82.2832 54.8501 81.9939 54.4867 81.629C54.1233 81.2641 53.8351 80.8309 53.6386 80.3541C53.4422 79.8773 53.3413 79.3663 53.3417 78.8503C53.3412 78.3343 53.4421 77.8232 53.6385 77.3464C53.835 76.8695 54.1231 76.4362 54.4865 76.0713C54.8499 75.7064 55.2815 75.4171 55.7564 75.2198C56.2313 75.0225 56.7403 74.9212 57.2543 74.9217C57.7682 74.9212 58.2772 75.0225 58.7521 75.2198C59.227 75.417 59.6585 75.7064 60.0219 76.0712C60.3853 76.4361 60.6734 76.8693 60.8699 77.3461C61.0664 77.8229 61.1672 78.3339 61.1668 78.8499C61.1672 79.3659 61.0664 79.8769 60.8699 80.3538C60.6734 80.8306 60.3853 81.2638 60.0219 81.6286C59.6585 81.9935 59.227 82.2828 58.7521 82.4801C58.2772 82.6773 57.7682 82.779 57.2543 82.7785Z" fill="url(#paint1_linear_100_857)"/>
</g>
<defs>
<linearGradient id="paint0_linear_100_857" x1="862.779" y1="806.519" x2="5329.37" y2="5210.86" gradientUnits="userSpaceOnUse">
<stop stop-color="#387EB8"/>
<stop offset="1" stop-color="#366994"/>
</linearGradient>
<linearGradient id="paint1_linear_100_857" x1="1296.67" y1="1401.29" x2="6092.39" y2="5916.7" gradientUnits="userSpaceOnUse">
<stop stop-color="#FFE052"/>
<stop offset="1" stop-color="#FFC331"/>
</linearGradient>
<clipPath id="clip0_100_857">
<rect width="90" height="90" fill="white"/>
</clipPath>
</defs>
</svg>
