<svg width="70" height="100" viewBox="0 0 70 100" fill="none" xmlns="http://www.w3.org/2000/svg">
<g clip-path="url(#clip0_6_2272)">
<g clip-path="url(#clip1_6_2272)">
<path d="M34.997 38.7725C38.6693 38.7725 41.6464 35.7404 41.6464 32C41.6464 28.2597 38.6693 25.2275 34.997 25.2275C31.3247 25.2275 28.3477 28.2597 28.3477 32C28.3477 35.7404 31.3247 38.7725 34.997 38.7725Z" fill="#087EA4"/>
<path d="M35.0007 47.2389C53.3623 47.2389 68.2474 40.4166 68.2474 32.0008C68.2474 23.585 53.3623 16.7627 35.0007 16.7627C16.639 16.7627 1.75391 23.585 1.75391 32.0008C1.75391 40.4166 16.639 47.2389 35.0007 47.2389Z" stroke="#087EA4" stroke-width="3"/>
<path d="M22.0421 39.6195C31.223 55.8156 44.4664 65.5341 51.6221 61.3262C58.7779 57.1183 57.1362 40.5775 47.9554 24.3814C38.7746 8.18524 25.5311 -1.53317 18.3754 2.67471C11.2196 6.8826 12.8613 23.4233 22.0421 39.6195Z" stroke="#087EA4" stroke-width="3"/>
<path d="M22.0454 24.3816C12.8645 40.5777 11.2229 57.1185 18.3786 61.3264C25.5344 65.5342 38.7778 55.8158 47.9587 39.6197C57.1395 23.4235 58.7811 6.88278 51.6254 2.6749C44.4696 -1.53299 31.2262 8.18542 22.0454 24.3816Z" stroke="#087EA4" stroke-width="3"/>
</g>
<path d="M12.0852 93V79.9091H16.5085C17.5313 79.9091 18.3707 80.0838 19.027 80.4332C19.6832 80.7784 20.169 81.2536 20.4844 81.8587C20.7997 82.4638 20.9574 83.152 20.9574 83.9233C20.9574 84.6946 20.7997 85.3786 20.4844 85.9751C20.169 86.5717 19.6854 87.0405 19.0334 87.3814C18.3814 87.718 17.5483 87.8864 16.5341 87.8864H12.9545V86.4545H16.483C17.1818 86.4545 17.7443 86.3523 18.1705 86.1477C18.6009 85.9432 18.9119 85.6534 19.1037 85.2784C19.2997 84.8991 19.3977 84.4474 19.3977 83.9233C19.3977 83.3991 19.2997 82.9411 19.1037 82.549C18.9077 82.157 18.5945 81.8544 18.1641 81.6413C17.7337 81.424 17.1648 81.3153 16.4574 81.3153H13.6705V93H12.0852ZM18.2472 87.1193L21.4688 93H19.6278L16.4574 87.1193H18.2472ZM27.4054 93.2045C26.4593 93.2045 25.6433 92.9957 24.9572 92.5781C24.2754 92.1562 23.7491 91.5682 23.3784 90.8139C23.0119 90.0554 22.8287 89.1733 22.8287 88.1676C22.8287 87.1619 23.0119 86.2756 23.3784 85.5085C23.7491 84.7372 24.2647 84.1364 24.9252 83.706C25.59 83.2713 26.3656 83.054 27.252 83.054C27.7633 83.054 28.2683 83.1392 28.7669 83.3097C29.2654 83.4801 29.7193 83.7571 30.1284 84.1406C30.5375 84.5199 30.8635 85.0227 31.1064 85.6491C31.3493 86.2756 31.4707 87.0469 31.4707 87.9631V88.6023H23.9025V87.2983H29.9366C29.9366 86.7443 29.8258 86.25 29.6042 85.8153C29.3869 85.3807 29.0758 85.0376 28.671 84.7862C28.2704 84.5348 27.7974 84.4091 27.252 84.4091C26.6511 84.4091 26.1312 84.5582 25.6923 84.8565C25.2576 85.1506 24.9231 85.5341 24.6887 86.0071C24.4544 86.4801 24.3372 86.9872 24.3372 87.5284V88.3977C24.3372 89.1392 24.465 89.7678 24.7207 90.2834C24.9806 90.7947 25.3407 91.1847 25.801 91.4531C26.2612 91.7173 26.796 91.8494 27.4054 91.8494C27.8017 91.8494 28.1596 91.794 28.4792 91.6832C28.8031 91.5682 29.0822 91.3977 29.3166 91.1719C29.551 90.9418 29.7321 90.6562 29.8599 90.3153L31.3173 90.7244C31.1639 91.2188 30.9061 91.6534 30.5439 92.0284C30.1816 92.3991 29.7342 92.6889 29.2015 92.8977C28.6689 93.1023 28.0701 93.2045 27.4054 93.2045ZM36.6547 93.2301C36.0325 93.2301 35.4679 93.1129 34.9608 92.8786C34.4537 92.6399 34.051 92.2969 33.7527 91.8494C33.4544 91.3977 33.3052 90.8523 33.3052 90.2131C33.3052 89.6506 33.416 89.1946 33.6376 88.8452C33.8592 88.4915 34.1554 88.2145 34.5261 88.0142C34.8968 87.8139 35.3059 87.6648 35.7534 87.5668C36.2051 87.4645 36.6589 87.3835 37.1149 87.3239C37.7115 87.2472 38.1951 87.1896 38.5659 87.1513C38.9409 87.1087 39.2136 87.0384 39.3841 86.9403C39.5588 86.8423 39.6461 86.6719 39.6461 86.429V86.3778C39.6461 85.7472 39.4735 85.2571 39.1284 84.9077C38.7875 84.5582 38.2697 84.3835 37.5751 84.3835C36.8549 84.3835 36.2903 84.5412 35.8812 84.8565C35.4721 85.1719 35.1845 85.5085 35.0183 85.8665L33.5865 85.3551C33.8422 84.7585 34.1831 84.294 34.6092 83.9616C35.0396 83.625 35.5083 83.3906 36.0154 83.2585C36.5268 83.1222 37.0297 83.054 37.524 83.054C37.8393 83.054 38.2015 83.0923 38.6106 83.169C39.024 83.2415 39.4224 83.3928 39.8059 83.6229C40.1937 83.853 40.5154 84.2003 40.7711 84.6648C41.0268 85.1293 41.1547 85.7514 41.1547 86.5312V93H39.6461V91.6705H39.5694C39.4672 91.8835 39.2967 92.1115 39.0581 92.3544C38.8194 92.5973 38.502 92.804 38.1056 92.9744C37.7093 93.1449 37.2257 93.2301 36.6547 93.2301ZM36.8848 91.875C37.4814 91.875 37.9842 91.7578 38.3933 91.5234C38.8066 91.2891 39.1177 90.9865 39.3265 90.6158C39.5396 90.245 39.6461 89.8551 39.6461 89.446V88.0653C39.5822 88.142 39.4416 88.2124 39.2243 88.2763C39.0112 88.3359 38.764 88.3892 38.4828 88.4361C38.2058 88.4787 37.9352 88.517 37.671 88.5511C37.411 88.581 37.2001 88.6065 37.0382 88.6278C36.6461 88.679 36.2797 88.7621 35.9387 88.8771C35.6021 88.9879 35.3294 89.1562 35.1206 89.3821C34.916 89.6037 34.8137 89.9062 34.8137 90.2898C34.8137 90.8139 35.0076 91.2102 35.3954 91.4787C35.7875 91.7429 36.2839 91.875 36.8848 91.875ZM47.8967 93.2045C46.9762 93.2045 46.1836 92.9872 45.5188 92.5526C44.854 92.1179 44.3427 91.5192 43.9847 90.7564C43.6268 89.9936 43.4478 89.1222 43.4478 88.142C43.4478 87.1449 43.631 86.2649 43.9975 85.5021C44.3683 84.7351 44.8839 84.1364 45.5444 83.706C46.2092 83.2713 46.9847 83.054 47.8711 83.054C48.5614 83.054 49.1836 83.1818 49.7376 83.4375C50.2915 83.6932 50.7454 84.0511 51.0991 84.5114C51.4528 84.9716 51.6722 85.5085 51.7575 86.1222H50.2489C50.1339 85.6747 49.8782 85.2784 49.4819 84.9332C49.0898 84.5838 48.5614 84.4091 47.8967 84.4091C47.3086 84.4091 46.793 84.5625 46.3498 84.8693C45.9109 85.1719 45.5678 85.6001 45.3207 86.1541C45.0778 86.7038 44.9563 87.3494 44.9563 88.0909C44.9563 88.8494 45.0756 89.5099 45.3143 90.0724C45.5572 90.6349 45.8981 91.0717 46.337 91.3828C46.7802 91.6939 47.3001 91.8494 47.8967 91.8494C48.2887 91.8494 48.6445 91.7812 48.9641 91.6449C49.2837 91.5085 49.5543 91.3125 49.7759 91.0568C49.9975 90.8011 50.1552 90.4943 50.2489 90.1364H51.7575C51.6722 90.7159 51.4613 91.2379 51.1246 91.7024C50.7923 92.1626 50.3512 92.5291 49.8015 92.8018C49.256 93.0703 48.6211 93.2045 47.8967 93.2045ZM58.2326 83.1818V84.4602H53.1445V83.1818H58.2326ZM54.6275 80.8295H56.136V90.1875C56.136 90.6136 56.1978 90.9332 56.3214 91.1463C56.4492 91.3551 56.6112 91.4957 56.8072 91.5682C57.0075 91.6364 57.2184 91.6705 57.44 91.6705C57.6062 91.6705 57.7425 91.6619 57.8491 91.6449C57.9556 91.6236 58.0408 91.6065 58.1048 91.5938L58.4116 92.9489C58.3093 92.9872 58.1665 93.0256 57.9833 93.0639C57.8001 93.1065 57.5678 93.1278 57.2866 93.1278C56.8604 93.1278 56.4428 93.0362 56.0337 92.853C55.6289 92.6697 55.2923 92.3906 55.0238 92.0156C54.7596 91.6406 54.6275 91.1676 54.6275 90.5966V80.8295Z" fill="#4B5563"/>
</g>
<defs>
<clipPath id="clip0_6_2272">
<rect width="69.8182" height="100" fill="white" transform="translate(0.0898438)"/>
</clipPath>
<clipPath id="clip1_6_2272">
<rect width="69.8182" height="64" fill="white" transform="translate(0.0898438)"/>
</clipPath>
</defs>
</svg>
